<svg xmlns="http://www.w3.org/2000/svg" width="110.966" height="30.25" viewBox="0 0 110.966 30.25">
  <g id="logo_w" data-name="logo w" transform="translate(-241.931 -405.358)">
    <path id="패스_113" data-name="패스 113" d="M315.528,412.116a11.62,11.62,0,0,0-6.928-1.739c-6.372,0-9.34,2.365-9.34,7.445v12.644h5.96V417.96c0-2.275,1.232-3.579,3.38-3.579a3.2,3.2,0,0,1,3.395,2.993,3.281,3.281,0,0,1-.017.586v12.506H318V417.822A6.569,6.569,0,0,0,315.528,412.116Z" fill="#434751"/>
    <path id="패스_114" data-name="패스 114" d="M285.158,410.377a23.547,23.547,0,0,0-7.3.946v3.3a21.378,21.378,0,0,1,5.583-.791,7.507,7.507,0,0,1,2.392.377l.055.021a3.348,3.348,0,0,1,2.47,2.987v7.335a3.237,3.237,0,0,1-3.331,3.142c-.075,0-.15-.007-.225-.014a3,3,0,0,1-3.173-3.267,3.131,3.131,0,0,1,2.787-3.44,3.092,3.092,0,0,1,.652,0c.185,0,.363,0,.54.016v-2.057c-.6-.056-1.2-.084-1.766-.084-2.93,0-5.248.744-6.527,2.1a4.86,4.86,0,0,0-1.26,3.467c0,5.35,4.982,6.473,9.162,6.473,3.929,0,6.184-.558,7.542-1.866,1.385-1.331,2-3.708,2-7.693C294.763,414.366,291.263,410.377,285.158,410.377Z" fill="#434751"/>
    <path id="패스_115" data-name="패스 115" d="M251.634,410.342h-.067c-3.84.015-6.427.888-7.906,2.67-1.2,1.443-1.73,3.509-1.73,6.683v15.883l5.929-4.2V417.4a3.327,3.327,0,0,1,1.388-2.64,3.048,3.048,0,0,1,.306-.183l.37-.224.049.043a3.549,3.549,0,0,1,1.178-.193,3.38,3.38,0,0,1,3.353,2.74,15.363,15.363,0,0,1,.352,3.572,13.505,13.505,0,0,1-.5,3.856l-.026.1a3.723,3.723,0,0,1-3.529,2.739,1.669,1.669,0,0,1-.236-.011v2.9a7.367,7.367,0,0,0,3.193.7c4.733,0,7.139-3.252,7.139-9.664,0-3.607-.637-6.183-2.066-7.832A9.153,9.153,0,0,0,251.634,410.342Z" fill="#434751"/>
    <path id="패스_116" data-name="패스 116" d="M265.387,409.813v20.669h6.171V405.435Z" fill="#434751"/>
    <path id="패스_117" data-name="패스 117" d="M337.772,405.358A15.125,15.125,0,1,0,352.9,420.483h0A15.125,15.125,0,0,0,337.772,405.358Zm6.906,5.335-3.719,2.635h0v14.309h0l3.719,2.636h-13.8l3.719-2.636h0V413.328h0l-3.719-2.635h13.8Z" fill="#007ec5"/>
  </g>
</svg>
