<svg xmlns="http://www.w3.org/2000/svg" width="82.313" height="83.867" viewBox="0 0 82.313 83.867">
  <g id="그룹_15663" data-name="그룹 15663" transform="translate(-354.669 -618.554)">
    <g id="그룹_15534" data-name="그룹 15534">
      <g id="그룹_15533" data-name="그룹 15533">
        <path id="패스_13275" data-name="패스 13275" d="M391.142,695.813a2.283,2.283,0,0,1,1.223.507,2.528,2.528,0,0,1,.765,1.109,3.3,3.3,0,0,1,.153,1.522,3.464,3.464,0,0,1-.5,1.506,2.318,2.318,0,0,1-2.3,1.091,2.114,2.114,0,0,1-1.034-.373,2.012,2.012,0,0,1-.631-.76,2.851,2.851,0,0,1-.263-1.011,4.081,4.081,0,0,1,.068-1.124l3.953.452-.062.548-3.366-.385.283-.141a3.133,3.133,0,0,0-.04.678,2.022,2.022,0,0,0,.131.644,1.212,1.212,0,0,0,.366.5,1.25,1.25,0,0,0,.666.249,1.423,1.423,0,0,0,.91-.168,1.634,1.634,0,0,0,.612-.645,2.515,2.515,0,0,0,.285-.925l.042-.366a2.844,2.844,0,0,0-.057-1.042,1.6,1.6,0,0,0-.442-.774,1.62,1.62,0,0,0-1.753-.206,1.113,1.113,0,0,0-.5.712l-.924-.106a1.975,1.975,0,0,1,1.335-1.4A2.558,2.558,0,0,1,391.142,695.813Z" fill="#fff"/>
        <path id="패스_13276" data-name="패스 13276" d="M387.737,695.525l-3.5,2.661,1.357,4.235-1.032-.324-1.1-3.432-2.7,2.236-1.042-.328,3.477-2.7-1.4-4.213,1.054.331,1.131,3.381,2.73-2.167Z" fill="#fff"/>
        <path id="패스_13277" data-name="패스 13277" d="M378.147,691.571a1.947,1.947,0,0,1,.786.75,1.793,1.793,0,0,1,.21,1.039,3.142,3.142,0,0,1-.417,1.252l-.332-.185a1.632,1.632,0,0,0,.231-.857,1.419,1.419,0,0,0-.228-.734,1.531,1.531,0,0,0-.548-.51,1.466,1.466,0,0,0-.81-.176,1.774,1.774,0,0,0-.885.315,2.488,2.488,0,0,0-.768.89,2.6,2.6,0,0,0-.349,1.088,1.712,1.712,0,0,0,.175.912,1.469,1.469,0,0,0,.6.617,1.51,1.51,0,0,0,.736.191,1.455,1.455,0,0,0,.757-.216,1.768,1.768,0,0,0,.622-.684l.332.184a3.053,3.053,0,0,1-.882,1.046,1.858,1.858,0,0,1-2.05.118,2.253,2.253,0,0,1-.885-.884,2.54,2.54,0,0,1-.31-1.3,3.229,3.229,0,0,1,.444-1.515,3.265,3.265,0,0,1,1.059-1.2,2.543,2.543,0,0,1,1.279-.429A2.28,2.28,0,0,1,378.147,691.571Zm3.426-1.035-3.97,7.174-.655-.363.493-1.2,3.347-6.047Z" fill="#fff"/>
        <path id="패스_13278" data-name="패스 13278" d="M373.113,688.114a2.288,2.288,0,0,1,.755,1.089,2.525,2.525,0,0,1,.043,1.345,3.32,3.32,0,0,1-.7,1.364,3.454,3.454,0,0,1-1.233,1,2.32,2.32,0,0,1-2.525-.328,2.135,2.135,0,0,1-.668-.873,2,2,0,0,1-.118-.981,2.86,2.86,0,0,1,.325-.993,4.172,4.172,0,0,1,.665-.908l3.08,2.519-.349.427-2.622-2.144.314.034a3.256,3.256,0,0,0-.4.549,2,2,0,0,0-.238.612,1.187,1.187,0,0,0,.036.62,1.26,1.26,0,0,0,.425.57,1.434,1.434,0,0,0,.857.352,1.644,1.644,0,0,0,.863-.212,2.5,2.5,0,0,0,.74-.623l.234-.285a2.836,2.836,0,0,0,.515-.908,1.59,1.59,0,0,0,.048-.889,1.617,1.617,0,0,0-1.362-1.122,1.109,1.109,0,0,0-.81.326l-.721-.59a2.027,2.027,0,0,1,.9-.48,1.991,1.991,0,0,1,.984.022A2.552,2.552,0,0,1,373.113,688.114Z" fill="#fff"/>
        <path id="패스_13279" data-name="패스 13279" d="M367.8,686.7a6.371,6.371,0,0,1-1.419,1.025,2.135,2.135,0,0,1-1.161.264,1.382,1.382,0,0,1-.891-.467,2.018,2.018,0,0,1-.208-.266,1.9,1.9,0,0,1-.15-.279l.691-.556a3.4,3.4,0,0,0,.172.32,1.705,1.705,0,0,0,.2.275,1.119,1.119,0,0,0,.737.394,1.624,1.624,0,0,0,.873-.21,4.694,4.694,0,0,0,.969-.7Zm2.252-1.219-4.065,3.719-.6-.662,4.065-3.718Z" fill="#fff"/>
        <path id="패스_13280" data-name="패스 13280" d="M361.49,685.818a.589.589,0,0,1,.129.446.552.552,0,0,1-.242.376.523.523,0,0,1-.42.107.717.717,0,0,1-.515-.706.526.526,0,0,1,.231-.368.557.557,0,0,1,.431-.115A.6.6,0,0,1,361.49,685.818Zm5.757-3.64-4.452,3.244-.528-.725,4.452-3.243Z" fill="#fff"/>
        <path id="패스_13281" data-name="패스 13281" d="M364.5,677.6a2.288,2.288,0,0,1,.283,1.295,2.541,2.541,0,0,1-.473,1.261,3.307,3.307,0,0,1-1.163.995,3.471,3.471,0,0,1-1.519.453,2.321,2.321,0,0,1-2.21-1.265,2.129,2.129,0,0,1-.285-1.061,2.011,2.011,0,0,1,.264-.952,2.853,2.853,0,0,1,.679-.794,4.162,4.162,0,0,1,.961-.587l1.889,3.5-.487.262-1.606-2.982.277.151a3.232,3.232,0,0,0-.58.355,2.052,2.052,0,0,0-.452.476,1.189,1.189,0,0,0-.2.586,1.262,1.262,0,0,0,.176.69,1.422,1.422,0,0,0,.657.65,1.65,1.65,0,0,0,.879.135,2.527,2.527,0,0,0,.923-.295l.323-.175a2.826,2.826,0,0,0,.823-.642,1.6,1.6,0,0,0,.383-.8,1.622,1.622,0,0,0-.832-1.557,1.112,1.112,0,0,0-.873-.005l-.441-.821a2.011,2.011,0,0,1,1.012-.1,1.988,1.988,0,0,1,.9.4A2.544,2.544,0,0,1,364.5,677.6Z" fill="#fff"/>
        <path id="패스_13282" data-name="패스 13282" d="M361.437,670.351l-3.078.986a1.721,1.721,0,0,0-1.027.724,1.318,1.318,0,0,0-.078,1.1,1.388,1.388,0,0,0,.518.733,1.7,1.7,0,0,0,.907.3,3.315,3.315,0,0,0,1.2-.18l.1.329a4.7,4.7,0,0,1-1.637.259,2.2,2.2,0,0,1-1.214-.388,1.922,1.922,0,0,1-.7-1.015,2.049,2.049,0,0,1-.064-1.149,1.878,1.878,0,0,1,.575-.929,3.049,3.049,0,0,1,1.146-.626l3.078-.986Zm1.192,3.724-5.235,1.677-.235-.735,1.166-.506,4.03-1.29Z" fill="#fff"/>
        <path id="패스_13283" data-name="패스 13283" d="M360.659,665.45a2.292,2.292,0,0,1-.2,1.268,2.613,2.613,0,0,1-.884,1.041,3.571,3.571,0,0,1-3.063.384,2.489,2.489,0,0,1-1.091-.793,2.463,2.463,0,0,1-.454-2.029,2.065,2.065,0,0,1,.3-.691,2.3,2.3,0,0,1,.5-.523,2.556,2.556,0,0,1,.62-.347l.194.9a1.512,1.512,0,0,0-.69.571,1.232,1.232,0,0,0-.175.848,1.39,1.39,0,0,0,.326.732,1.653,1.653,0,0,0,.764.492,2.6,2.6,0,0,0,1.17.079,2.756,2.756,0,0,0,1.074-.339,1.725,1.725,0,0,0,.652-.648,1.338,1.338,0,0,0,.155-.836,1.353,1.353,0,0,0-.431-.923,1.147,1.147,0,0,0-.906-.219l-.114-.913a1.927,1.927,0,0,1,1.049.141,1.9,1.9,0,0,1,.8.673A2.5,2.5,0,0,1,360.659,665.45Z" fill="#fff"/>
        <path id="패스_13284" data-name="패스 13284" d="M360.439,659.558a2.281,2.281,0,0,1-.419,1.257,2.533,2.533,0,0,1-1.052.842,3.312,3.312,0,0,1-1.507.26,3.46,3.46,0,0,1-1.537-.388,2.319,2.319,0,0,1-1.252-2.218,2.114,2.114,0,0,1,.3-1.057,2,2,0,0,1,.714-.683,2.856,2.856,0,0,1,.99-.335,4.074,4.074,0,0,1,1.126-.012l-.17,3.975-.552-.024.145-3.383.161.271a3.365,3.365,0,0,0-.68.009,2,2,0,0,0-.632.178,1.177,1.177,0,0,0-.474.4,1.257,1.257,0,0,0-.2.682,1.423,1.423,0,0,0,.232.9,1.645,1.645,0,0,0,.686.565,2.513,2.513,0,0,0,.944.218l.367.016a2.821,2.821,0,0,0,1.036-.131,1.572,1.572,0,0,0,.74-.495,1.618,1.618,0,0,0,.082-1.764,1.117,1.117,0,0,0-.746-.451l.039-.931a1.974,1.974,0,0,1,1.5,1.232A2.563,2.563,0,0,1,360.439,659.558Z" fill="#fff"/>
        <path id="패스_13285" data-name="패스 13285" d="M367.1,640.639a2.287,2.287,0,0,1-1.044.817,2.536,2.536,0,0,1-1.341.12,3.3,3.3,0,0,1-1.4-.615,3.472,3.472,0,0,1-1.066-1.173,2.32,2.32,0,0,1,.181-2.54,2.122,2.122,0,0,1,.833-.717,1.992,1.992,0,0,1,.972-.175,2.832,2.832,0,0,1,1.01.268,4.087,4.087,0,0,1,.945.611l-2.336,3.22-.448-.325,1.99-2.74-.016.316a3.124,3.124,0,0,0-.571-.368,2.053,2.053,0,0,0-.624-.2,1.207,1.207,0,0,0-.618.072,1.279,1.279,0,0,0-.545.457,1.419,1.419,0,0,0-.3.876,1.644,1.644,0,0,0,.259.849,2.505,2.505,0,0,0,.666.7l.3.217a2.842,2.842,0,0,0,.936.462,1.592,1.592,0,0,0,.89,0,1.617,1.617,0,0,0,1.042-1.426,1.112,1.112,0,0,0-.372-.789l.547-.753a1.972,1.972,0,0,1,.567,1.853A2.57,2.57,0,0,1,367.1,640.639Z" fill="#fff"/>
        <path id="패스_13286" data-name="패스 13286" d="M369.028,637.815l-.6-4.355-4.358-.893.788-.74,3.533.72-.624-3.452.8-.748.652,4.357,4.358.843-.8.756-3.5-.671.55,3.443Z" fill="#fff"/>
        <path id="패스_13287" data-name="패스 13287" d="M376.4,634.88l-4.321-6.968.636-.394.806,1.016,3.642,5.874Zm.77-3.495a1.946,1.946,0,0,1-1.037.319,1.778,1.778,0,0,1-1.01-.325,3.111,3.111,0,0,1-.889-.974l.323-.2a1.627,1.627,0,0,0,.635.621,1.418,1.418,0,0,0,.752.16,1.54,1.54,0,0,0,.713-.23,1.453,1.453,0,0,0,.549-.621,1.753,1.753,0,0,0,.156-.925,2.473,2.473,0,0,0-.4-1.105,2.608,2.608,0,0,0-.779-.837,1.719,1.719,0,0,0-.881-.292,1.463,1.463,0,0,0-.834.227,1.482,1.482,0,0,0-.526.549,1.44,1.44,0,0,0-.181.765,1.758,1.758,0,0,0,.293.877l-.323.2a3.045,3.045,0,0,1-.483-1.28,1.9,1.9,0,0,1,.18-1.075,1.926,1.926,0,0,1,.719-.771,2.242,2.242,0,0,1,1.2-.339,2.546,2.546,0,0,1,1.288.364,3.222,3.222,0,0,1,1.1,1.128,3.268,3.268,0,0,1,.526,1.508,2.538,2.538,0,0,1-.251,1.325A2.276,2.276,0,0,1,377.17,631.385Z" fill="#fff"/>
        <path id="패스_13288" data-name="패스 13288" d="M382.641,628.685a2.283,2.283,0,0,1-1.32.126,2.535,2.535,0,0,1-1.2-.621,3.307,3.307,0,0,1-.849-1.273,3.481,3.481,0,0,1-.267-1.563,2.32,2.32,0,0,1,1.52-2.042,2.114,2.114,0,0,1,1.089-.155,1.991,1.991,0,0,1,.913.376,2.828,2.828,0,0,1,.707.769,4.172,4.172,0,0,1,.467,1.025l-3.7,1.454-.2-.514,3.152-1.238-.183.258a3.191,3.191,0,0,0-.283-.618,1.979,1.979,0,0,0-.418-.506,1.177,1.177,0,0,0-.557-.273,1.255,1.255,0,0,0-.7.092,1.418,1.418,0,0,0-.726.575,1.638,1.638,0,0,0-.238.857,2.5,2.5,0,0,0,.181.951l.135.342a2.844,2.844,0,0,0,.539.894,1.593,1.593,0,0,0,.752.477,1.619,1.619,0,0,0,1.646-.64,1.11,1.11,0,0,0,.111-.865l.867-.341a2.046,2.046,0,0,1-.02,1.019,2.018,2.018,0,0,1-.5.848A2.557,2.557,0,0,1,382.641,628.685Z" fill="#fff"/>
        <path id="패스_13289" data-name="패스 13289" d="M386.439,627.3l-1.243-5.366.874-.2,1.243,5.367Zm.044-2.56a6.376,6.376,0,0,1-.2-1.739,2.129,2.129,0,0,1,.341-1.142,1.379,1.379,0,0,1,.844-.547,1.925,1.925,0,0,1,.651-.045l.144.876a3.055,3.055,0,0,0-.362-.008,1.9,1.9,0,0,0-.34.04,1.114,1.114,0,0,0-.7.451,1.613,1.613,0,0,0-.246.862,4.635,4.635,0,0,0,.138,1.19Z" fill="#fff"/>
        <path id="패스_13290" data-name="패스 13290" d="M390.361,619.68a.591.591,0,0,1-.452-.107.564.564,0,0,1-.208-.4.529.529,0,0,1,.114-.418.713.713,0,0,1,.869-.1.526.526,0,0,1,.206.381.557.557,0,0,1-.113.432A.591.591,0,0,1,390.361,619.68Zm.338,6.8-.635-5.472.892-.1.634,5.471Z" fill="#fff"/>
        <path id="패스_13291" data-name="패스 13291" d="M396.058,626.338a2.269,2.269,0,0,1-1.267-.389,2.526,2.526,0,0,1-.866-1.031,3.318,3.318,0,0,1-.3-1.5,3.478,3.478,0,0,1,.351-1.546,2.323,2.323,0,0,1,2.188-1.3,2.131,2.131,0,0,1,1.064.273,2.014,2.014,0,0,1,.7.7,2.847,2.847,0,0,1,.358.981,4.169,4.169,0,0,1,.039,1.125l-3.978-.076.009-.552,3.387.065-.268.168a3.226,3.226,0,0,0-.024-.68,2.052,2.052,0,0,0-.192-.628,1.213,1.213,0,0,0-.411-.465,1.265,1.265,0,0,0-.687-.185,1.422,1.422,0,0,0-.891.254,1.635,1.635,0,0,0-.547.7,2.49,2.49,0,0,0-.2.948l-.008.368a2.844,2.844,0,0,0,.157,1.032,1.6,1.6,0,0,0,.512.729,1.621,1.621,0,0,0,1.765.039,1.115,1.115,0,0,0,.435-.756l.93.018a1.971,1.971,0,0,1-1.2,1.524A2.565,2.565,0,0,1,396.058,626.338Z" fill="#fff"/>
        <path id="패스_13292" data-name="패스 13292" d="M400.028,626.437l1.1-5.387.755.155-.129,1.264-.846,4.147Zm3.832.78.645-3.166a1.718,1.718,0,0,0-.129-1.25,1.322,1.322,0,0,0-.924-.607,1.385,1.385,0,0,0-.893.094,1.707,1.707,0,0,0-.7.646,3.324,3.324,0,0,0-.43,1.135l-.338-.068a4.71,4.71,0,0,1,.575-1.556,2.2,2.2,0,0,1,.931-.869,1.928,1.928,0,0,1,1.229-.116,2.043,2.043,0,0,1,1.032.506,1.875,1.875,0,0,1,.531.956,3.051,3.051,0,0,1-.014,1.306l-.645,3.166Z" fill="#fff"/>
        <path id="패스_13293" data-name="패스 13293" d="M408.51,628.933a2.284,2.284,0,0,1-1.008-.795,2.612,2.612,0,0,1-.476-1.279,3.566,3.566,0,0,1,1.163-2.86,2.514,2.514,0,0,1,1.226-.564,2.38,2.38,0,0,1,1.271.152,2.315,2.315,0,0,1,.721.445,2.034,2.034,0,0,1,.453.6,2.291,2.291,0,0,1,.212.692,2.519,2.519,0,0,1,0,.71l-.882-.272a1.516,1.516,0,0,0-.16-.882,1.24,1.24,0,0,0-.654-.566,1.385,1.385,0,0,0-.8-.074,1.663,1.663,0,0,0-.8.425,2.645,2.645,0,0,0-.641.983,2.792,2.792,0,0,0-.229,1.1,1.729,1.729,0,0,0,.246.884,1.34,1.34,0,0,0,.654.545,1.355,1.355,0,0,0,1.015.075,1.138,1.138,0,0,0,.634-.682l.853.346a1.949,1.949,0,0,1-.636.847,1.888,1.888,0,0,1-.978.365A2.486,2.486,0,0,1,408.51,628.933Z" fill="#fff"/>
        <path id="패스_13294" data-name="패스 13294" d="M413.754,631.631a2.286,2.286,0,0,1-.889-.982,2.54,2.54,0,0,1-.216-1.33,3.309,3.309,0,0,1,.514-1.44,3.475,3.475,0,0,1,1.094-1.149,2.319,2.319,0,0,1,2.547,0,2.14,2.14,0,0,1,.774.779,2.021,2.021,0,0,1,.244.958,2.856,2.856,0,0,1-.195,1.027,4.153,4.153,0,0,1-.543.986l-3.378-2.1.291-.469,2.876,1.789-.315.007a3.226,3.226,0,0,0,.326-.6,2.022,2.022,0,0,0,.156-.637,1.187,1.187,0,0,0-.114-.61,1.277,1.277,0,0,0-.495-.511,1.43,1.43,0,0,0-.895-.238,1.645,1.645,0,0,0-.829.32,2.511,2.511,0,0,0-.654.714l-.2.313a2.826,2.826,0,0,0-.394.966,1.586,1.586,0,0,0,.066.888,1.626,1.626,0,0,0,1.5.938,1.112,1.112,0,0,0,.761-.428l.791.492a1.973,1.973,0,0,1-1.808.7A2.559,2.559,0,0,1,413.754,631.631Z" fill="#fff"/>
        <path id="패스_13295" data-name="패스 13295" d="M426.987,646.712a2.289,2.289,0,0,1-.2-1.31,2.541,2.541,0,0,1,.551-1.23,3.315,3.315,0,0,1,1.221-.92,3.46,3.46,0,0,1,1.545-.359,2.322,2.322,0,0,1,2.127,1.4,2.116,2.116,0,0,1,.218,1.077,1.987,1.987,0,0,1-.322.934,2.843,2.843,0,0,1-.728.75,4.087,4.087,0,0,1-.995.526l-1.667-3.613.5-.231,1.419,3.075-.267-.168a3.2,3.2,0,0,0,.6-.318,2.043,2.043,0,0,0,.482-.446,1.2,1.2,0,0,0,.239-.574,1.27,1.27,0,0,0-.133-.7,1.42,1.42,0,0,0-.616-.691,1.651,1.651,0,0,0-.869-.188,2.524,2.524,0,0,0-.939.236l-.334.155a2.833,2.833,0,0,0-.861.591,1.589,1.589,0,0,0-.433.778,1.44,1.44,0,0,0,.131.915,1.426,1.426,0,0,0,.6.69,1.105,1.105,0,0,0,.87.061l.391.846a1.972,1.972,0,0,1-1.894-.412A2.549,2.549,0,0,1,426.987,646.712Z" fill="#fff"/>
        <path id="패스_13296" data-name="패스 13296" d="M428.5,649.752l4.092,1.609,2.915-3.36.259,1.049-2.361,2.726,3.316,1.149.261,1.061-4.117-1.567-2.873,3.385-.264-1.072,2.3-2.724-3.27-1.207Z" fill="#fff"/>
        <path id="패스_13297" data-name="패스 13297" d="M427.445,657.64l8.193-.337.031.747-1.281.2-6.906.284Zm2.665,2.389a1.96,1.96,0,0,1,.233-1.061,1.793,1.793,0,0,1,.779-.719,3.112,3.112,0,0,1,1.285-.294l.016.379a1.62,1.62,0,0,0-.853.248,1.411,1.411,0,0,0-.508.576,1.515,1.515,0,0,0-.152.734,1.468,1.468,0,0,0,.272.783,1.754,1.754,0,0,0,.729.591,2.474,2.474,0,0,0,1.158.2,2.6,2.6,0,0,0,1.112-.268,1.709,1.709,0,0,0,.688-.624,1.474,1.474,0,0,0,.213-.837,1.506,1.506,0,0,0-.22-.728,1.46,1.46,0,0,0-.578-.535,1.765,1.765,0,0,0-.907-.174l-.016-.38a3.06,3.06,0,0,1,1.353.209,1.853,1.853,0,0,1,1.165,1.69,2.245,2.245,0,0,1-.295,1.215,2.537,2.537,0,0,1-.951.942,3.208,3.208,0,0,1-1.526.408,3.247,3.247,0,0,1-1.571-.283,2.538,2.538,0,0,1-1.031-.87A2.28,2.28,0,0,1,430.11,660.029Z" fill="#fff"/>
        <path id="패스_13298" data-name="패스 13298" d="M429.783,666.112a2.28,2.28,0,0,1,.535-1.211,2.522,2.522,0,0,1,1.126-.739,3.281,3.281,0,0,1,1.526-.117,3.459,3.459,0,0,1,1.494.53A2.321,2.321,0,0,1,435.5,666.9a2.125,2.125,0,0,1-.4,1.024,2,2,0,0,1-.775.614,2.873,2.873,0,0,1-1.017.239,4.128,4.128,0,0,1-1.122-.093l.543-3.942.547.075-.462,3.355-.134-.285a3.178,3.178,0,0,0,.676.055,2.045,2.045,0,0,0,.647-.116,1.2,1.2,0,0,0,.51-.354,1.265,1.265,0,0,0,.264-.66,1.417,1.417,0,0,0-.146-.914,1.659,1.659,0,0,0-.631-.627,2.529,2.529,0,0,0-.918-.307l-.364-.049a2.839,2.839,0,0,0-1.044.033,1.59,1.59,0,0,0-.784.423,1.62,1.62,0,0,0-.247,1.748,1.112,1.112,0,0,0,.7.52l-.127.923a2.019,2.019,0,0,1-.878-.516,2,2,0,0,1-.495-.852A2.55,2.55,0,0,1,429.783,666.112Z" fill="#fff"/>
        <path id="패스_13299" data-name="패스 13299" d="M429.13,670.113l5.289,1.54-.251.861-5.288-1.54Zm2.212,1.291a6.3,6.3,0,0,1,1.613.68,2.132,2.132,0,0,1,.829.854,1.379,1.379,0,0,1,.064,1,2.053,2.053,0,0,1-.119.316,1.88,1.88,0,0,1-.161.274l-.834-.3a3.1,3.1,0,0,0,.184-.312,1.741,1.741,0,0,0,.131-.315,1.114,1.114,0,0,0-.047-.835,1.618,1.618,0,0,0-.633-.636,4.672,4.672,0,0,0-1.1-.462Z" fill="#fff"/>
        <path id="패스_13300" data-name="패스 13300" d="M427.764,674.219l5.082,2.124-.346.828-5.082-2.125Zm6.1,3.035a.6.6,0,0,1,.315-.343.56.56,0,0,1,.446.012.526.526,0,0,1,.31.3.716.716,0,0,1-.337.807.526.526,0,0,1-.434-.007.556.556,0,0,1-.322-.31A.593.593,0,0,1,433.861,677.254Z" fill="#fff"/>
        <path id="패스_13301" data-name="패스 13301" d="M425.268,678.955a2.271,2.271,0,0,1,.961-.912,2.5,2.5,0,0,1,1.323-.248,3.281,3.281,0,0,1,1.453.478,3.47,3.47,0,0,1,1.175,1.065,2.317,2.317,0,0,1,.062,2.545,2.121,2.121,0,0,1-.761.794,2,2,0,0,1-.951.267,2.824,2.824,0,0,1-1.031-.17,4.1,4.1,0,0,1-1-.519l2.019-3.428.475.28-1.719,2.918-.013-.315a3.127,3.127,0,0,0,.6.312,2.05,2.05,0,0,0,.641.141,1.2,1.2,0,0,0,.607-.13,1.252,1.252,0,0,0,.5-.507,1.415,1.415,0,0,0,.217-.9,1.643,1.643,0,0,0-.341-.822,2.484,2.484,0,0,0-.729-.635l-.317-.188a2.861,2.861,0,0,0-.976-.371,1.594,1.594,0,0,0-.886.089,1.618,1.618,0,0,0-.9,1.518,1.109,1.109,0,0,0,.446.75l-.473.8a1.973,1.973,0,0,1-.74-1.79A2.541,2.541,0,0,1,425.268,678.955Z" fill="#fff"/>
        <path id="패스_13302" data-name="패스 13302" d="M420.664,685.325l2.44,2.117a1.712,1.712,0,0,0,1.153.5,1.321,1.321,0,0,0,.983-.506,1.4,1.4,0,0,0,.358-.824,1.708,1.708,0,0,0-.219-.928,3.3,3.3,0,0,0-.777-.933l.225-.261a4.676,4.676,0,0,1,1.072,1.265,2.2,2.2,0,0,1,.3,1.239,1.927,1.927,0,0,1-.5,1.128,2.043,2.043,0,0,1-.948.65,1.86,1.86,0,0,1-1.093-.009,3.058,3.058,0,0,1-1.131-.653l-2.44-2.117Zm2.563-2.954,4.151,3.6-.505.582-1.038-.733-3.2-2.774Z" fill="#fff"/>
        <path id="패스_13303" data-name="패스 13303" d="M416.89,688.539a2.272,2.272,0,0,1,1.186-.491,2.623,2.623,0,0,1,1.349.211,3.583,3.583,0,0,1,1.926,2.414,2.5,2.5,0,0,1-.109,1.344,2.366,2.366,0,0,1-.753,1.034,2.325,2.325,0,0,1-.742.412,2.024,2.024,0,0,1-.747.1,2.279,2.279,0,0,1-.707-.153,2.528,2.528,0,0,1-.62-.348l.669-.637a1.517,1.517,0,0,0,.847.292,1.245,1.245,0,0,0,.815-.293,1.388,1.388,0,0,0,.454-.661,1.65,1.65,0,0,0,.022-.908,2.63,2.63,0,0,0-.543-1.041,2.743,2.743,0,0,0-.85-.737,1.723,1.723,0,0,0-.892-.22,1.531,1.531,0,0,0-1.357,1.153,1.142,1.142,0,0,0,.285.887l-.72.574a1.949,1.949,0,0,1-.426-.968,1.9,1.9,0,0,1,.159-1.033A2.492,2.492,0,0,1,416.89,688.539Z" fill="#fff"/>
        <path id="패스_13304" data-name="패스 13304" d="M411.967,691.8a2.274,2.274,0,0,1,1.292-.294,2.531,2.531,0,0,1,1.265.46,3.3,3.3,0,0,1,1.006,1.153,3.455,3.455,0,0,1,.468,1.515,2.322,2.322,0,0,1-1.244,2.222,2.123,2.123,0,0,1-1.059.295,2,2,0,0,1-.955-.255,2.858,2.858,0,0,1-.8-.672,4.12,4.12,0,0,1-.6-.955l3.484-1.921.267.484-2.966,1.634.148-.278a3.177,3.177,0,0,0,.361.576,2.027,2.027,0,0,0,.479.448,1.194,1.194,0,0,0,.589.2,1.274,1.274,0,0,0,.688-.183,1.421,1.421,0,0,0,.644-.664,1.651,1.651,0,0,0,.126-.88,2.52,2.52,0,0,0-.3-.92l-.177-.322a2.843,2.843,0,0,0-.651-.816,1.583,1.583,0,0,0-.807-.375,1.616,1.616,0,0,0-1.549.846,1.112,1.112,0,0,0,0,.872l-.817.451a1.974,1.974,0,0,1,.276-1.918A2.554,2.554,0,0,1,411.967,691.8Z" fill="#fff"/>
      </g>
    </g>
    <circle id="타원_209" data-name="타원 209" cx="1" cy="1" r="1" transform="translate(358.658 647.984)" fill="#fff"/>
    <circle id="타원_210" data-name="타원 210" cx="1" cy="1" r="1" transform="translate(401.033 697.71)" fill="#fff"/>
    <circle id="타원_211" data-name="타원 211" cx="1" cy="1" r="1" transform="translate(422.932 635.31)" fill="#fff"/>
  </g>
</svg>
